<svg width="81" height="80" viewBox="0 0 81 80" fill="none" xmlns="http://www.w3.org/2000/svg">
<path fill-rule="evenodd" clip-rule="evenodd" d="M72.3597 60.8424V60.8252H47.9602C45.4561 61.6005 43.0165 62.5457 40.6578 63.65H57.3545L46.5056 71.4628L37.7153 65.1323C36.7463 65.656 35.7929 66.2074 34.8565 66.7856L45.6632 74.5679H24.9214C29.6774 76.6814 34.9431 77.8558 40.4832 77.8558C46.0232 77.8558 51.2889 76.6814 56.045 74.5679H47.3484L58.6821 66.4061L63.71 70.027C64.5364 69.3974 65.3363 68.7351 66.1081 68.0419L60.0096 63.65H70.2851C71.0177 62.7471 71.7101 61.8103 72.3597 60.8424Z" fill="#1DB954" fill-opacity="0.5"/>
<path fill-rule="evenodd" clip-rule="evenodd" d="M39.0176 62.9708C37.948 62.5558 36.8589 62.1798 35.752 61.8447H9.30273C9.72796 62.437 10.1697 63.0167 10.6272 63.583H15.3911L12.3883 65.614C12.8249 66.0835 13.2731 66.542 13.7326 66.9892L16.2609 65.2791L23.163 70.3017H17.6214C18.4451 70.9141 19.2942 71.4941 20.1669 72.04H25.984C26.6231 71.4457 27.2761 70.8661 27.9423 70.3017H24.7913L32.2175 65.2791L33.5044 66.1495C34.0806 65.7723 34.6641 65.4054 35.2547 65.049L33.0873 63.583H37.8362C38.2273 63.3745 38.6211 63.1703 39.0176 62.9708ZM24.2391 68.3909L17.1308 63.583H31.3475L24.2391 68.3909Z" fill="#1DB954"/>
<path fill-rule="evenodd" clip-rule="evenodd" d="M72.5303 55.9642V35.167H70.0741V59.2959H70.7141C71.373 58.2197 71.9796 57.1079 72.5303 55.9642ZM61.4776 35.167H59.0215V59.2959H61.4776V35.167ZM65.1619 35.167H62.7057V59.2959H65.1619V35.167ZM66.3899 35.167H68.846V59.2959H66.3899V35.167Z" fill="#1DB954" fill-opacity="0.5"/>
<path fill-rule="evenodd" clip-rule="evenodd" d="M49.3506 24.9956L58.7168 34.3612H61.1621L51.7971 24.9956H49.3506ZM53.0185 24.9956L62.3848 34.3612H64.83L55.4651 24.9956H53.0185ZM56.6865 24.9956L66.0527 34.3612H68.4981L59.133 24.9956H56.6865ZM60.3545 24.9956L69.7207 34.3612H72.166L62.801 24.9956H60.3545Z" fill="#1DB954"/>
<path fill-rule="evenodd" clip-rule="evenodd" d="M54.7787 32.0581L57.832 35.1114V59.2958H54.7787V32.0581ZM51.1148 28.3942L53.5575 30.8368V59.2958H51.1148V28.3942ZM48.0551 25.3345L49.8935 27.1729V52.3736H46.2296V27.16L48.0551 25.3345ZM38.291 61.2499V35.0985L41.3443 32.0453V61.6747L40.502 62.0146L39.3105 61.5898L38.291 61.2499ZM42.5656 61.1848V30.824L45.0082 28.3813V60.1879L42.5656 61.1848Z" fill="#6F6F6E"/>
<path d="M31.958 30.1777H35.9121V60.2756H31.958V30.1777Z" fill="#6F6F6E"/>
<path d="M18.6353 27.0542H18.8726V28.4583H18.6353V27.0542Z" fill="#6F6F6E"/>
<path d="M18.6353 36.2275H28.125V60.2756H18.6353V36.2275Z" fill="#6F6F6E"/>
<path d="M18.6353 28.3647H28.125V29.7688H18.6353V28.3647Z" fill="#6F6F6E"/>
<path d="M20.1377 27.0542H20.3749V28.4583H20.1377V27.0542Z" fill="#6F6F6E"/>
<path d="M28.1252 26.5859V27.054H18.6353L18.6353 26.5859H28.1252Z" fill="#6F6F6E"/>
<path d="M21.7197 27.0542H21.9569V28.4583H21.7197V27.0542Z" fill="#6F6F6E"/>
<path d="M23.2222 27.0542H23.4595V28.4583H23.2222V27.0542Z" fill="#6F6F6E"/>
<path d="M24.7246 27.0542H24.9618V28.4583H24.7246V27.0542Z" fill="#6F6F6E"/>
<path d="M26.3062 27.0542H26.5434V28.4583H26.3062V27.0542Z" fill="#6F6F6E"/>
<path d="M27.8882 27.0542H28.1255V28.4583H27.8882V27.0542Z" fill="#6F6F6E"/>
<path d="M10.9336 46.6382H14.8877V60.2757H10.9336V46.6382Z" fill="#6F6F6E"/>
<path d="M18.665 30.5791H28.1339V31.5986H18.665V30.5791Z" fill="#1DB954"/>
<path d="M18.6973 32.4482H28.1661V33.4678H18.6973V32.4482Z" fill="#1DB954"/>
<path d="M18.665 34.3174H28.1339V35.3369H18.665V34.3174Z" fill="#1DB954"/>
<path d="M29.625 17.4951C29.625 17.0259 30.0054 16.6455 30.4746 16.6455H37.3564C37.8257 16.6455 38.2061 17.0259 38.2061 17.4951V26.1857C38.2061 26.3365 38.166 26.4846 38.0897 26.6148L36.1157 29.9886C35.9633 30.2491 35.6842 30.4092 35.3824 30.4092H32.4099C32.1061 30.4092 31.8255 30.2471 31.6737 29.9839L29.7386 26.6271C29.6642 26.498 29.625 26.3517 29.625 26.2027V17.4951Z" fill="#6F6F6E"/>
<path d="M9.65918 44.6006H15.9718V45.6264H9.65918V44.6006Z" fill="#1DB954"/>
<path d="M9.65918 42.9434H15.9718V43.9692H9.65918V42.9434Z" fill="#1DB954"/>
<path d="M9.65918 41.2861H15.9718V42.312H9.65918V41.2861Z" fill="#1DB954"/>
<path fill-rule="evenodd" clip-rule="evenodd" d="M15.1038 38.926H16.8664V39.8833L15.1038 38.926ZM12.921 40.0976L15.0781 38.926H10.764L12.921 40.0976ZM10.7381 38.926H8.98266V39.8794L10.7381 38.926ZM8.58105 40.0976V40.1026V40.8127V41.3805L8.5904 41.3811C8.58445 41.4216 8.58139 41.463 8.58139 41.5051V46.3095C8.58139 46.5706 8.70153 46.8173 8.90713 46.9783L10.6784 48.3655C10.8279 48.4826 11.0124 48.5462 11.2023 48.5462H14.6404C14.8303 48.5462 15.0147 48.4826 15.1643 48.3655L16.9355 46.9783C17.1411 46.8173 17.2613 46.5706 17.2613 46.3095V41.5051C17.2613 41.4709 17.2592 41.4373 17.2553 41.4042L17.2608 41.4045V40.8127H17.2609V40.1026H17.2608V40.0976L17.2609 40.0976H17.2608V38.9189H17.2607V38.5244H8.58105V38.9189V40.0976V40.0976ZM9.42285 40.1026L10.7511 39.3812L12.0793 40.1026H9.42285ZM12.921 40.0977L12.924 40.1026H12.9181L12.921 40.0977ZM16.4191 40.1026L15.0909 39.3812L13.7628 40.1026H16.4191ZM9.37051 40.8127H16.4721V46.179H9.37051V40.8127Z" fill="#6F6F6E"/>
<path fill-rule="evenodd" clip-rule="evenodd" d="M73.3729 59.296H72.3776C75.9218 53.5744 77.9679 46.827 77.9679 39.6019C77.9679 18.9182 61.2005 2.15088 40.5169 2.15088C19.8333 2.15088 3.06592 18.9182 3.06592 39.6019C3.06592 47.188 5.32144 54.2472 9.19844 60.1456H8.18639C4.4063 54.209 2.21631 47.1612 2.21631 39.6019C2.21631 18.4491 19.3641 1.30127 40.5169 1.30127C61.6697 1.30127 78.8175 18.4491 78.8175 39.6019C78.8175 46.8038 76.8297 53.5413 73.3729 59.296Z" fill="#1DB954"/>
</svg>
