<svg width="25" height="18" viewBox="0 0 25 18" fill="none" xmlns="http://www.w3.org/2000/svg">
<path fill-rule="evenodd" clip-rule="evenodd" d="M24.5167 0.247723C24.5365 0.268038 24.5554 0.289564 24.5734 0.312287C24.8547 0.667362 24.7928 1.18197 24.4348 1.46096L12.8847 10.4606C12.8641 10.4769 12.8413 10.4875 12.8185 10.4981C12.8047 10.5045 12.7908 10.5109 12.7775 10.5186C12.7687 10.5235 12.7602 10.5284 12.7517 10.5333C12.7318 10.5448 12.7123 10.5561 12.6908 10.5653C12.5885 10.6078 12.4829 10.6356 12.3749 10.6356C12.2668 10.6356 12.1612 10.6078 12.0581 10.5645C12.0368 10.5559 12.0176 10.5446 11.9979 10.533C11.9892 10.528 11.9805 10.5228 11.9714 10.5178C11.9589 10.5109 11.946 10.5049 11.9331 10.499C11.9097 10.4882 11.8863 10.4775 11.865 10.4606L0.314938 1.46096C0.108109 1.2998 0.000107968 1.06002 7.70524e-08 0.817787C7.70524e-08 0.817906 0 0.818025 0 0.818144V17.181C0 17.6335 0.369602 17.9992 0.825005 17.9992H23.9251C24.3805 17.9992 24.7501 17.6335 24.7501 17.181V0.818144C24.7501 0.596134 24.6611 0.395005 24.5167 0.247723ZM23.8841 0C23.7191 0.00800567 23.5548 0.0653125 23.4151 0.174839L12.3749 8.77763L1.33464 0.174839C1.19346 0.0641872 1.02727 0.00696085 0.860487 0H23.8841Z" fill="#47C473"/>
</svg>
