<svg width="20" height="26" viewBox="0 0 20 26" fill="none" xmlns="http://www.w3.org/2000/svg">
<path fill-rule="evenodd" clip-rule="evenodd" d="M9.01337 25.7986C9.32247 25.9315 9.65736 26.0002 9.99605 26V25.991C10.3391 25.9874 10.6773 25.9135 10.9882 25.7743C11.2991 25.635 11.5755 25.4336 11.7988 25.1836C14.2648 22.4203 20 15.3775 20 9.6087C19.9975 7.06104 18.9427 4.61841 17.0672 2.81695C15.1916 1.01548 12.6485 0.00237544 9.99605 0C8.1236 0.0408749 6.30355 0.601775 4.75589 1.61491C3.50358 2.32144 2.4333 3.29014 1.62469 4.44892C0.816085 5.6077 0.289971 6.92671 0.0855061 8.3078C-0.801866 14.7943 5.4471 22.3126 8.20262 25.2284C8.42798 25.4713 8.70428 25.6656 9.01337 25.7986ZM7.92029 12.5477C8.53472 12.942 9.2571 13.1525 9.99607 13.1525C10.987 13.1525 11.9373 12.7744 12.638 12.1014C13.3387 11.4284 13.7324 10.5156 13.7324 9.56378C13.7324 8.85401 13.5132 8.16017 13.1027 7.57002C12.6921 6.97986 12.1086 6.51989 11.4259 6.24827C10.7432 5.97665 9.99193 5.90558 9.26715 6.04405C8.54238 6.18252 7.87664 6.52431 7.3541 7.0262C6.83157 7.52809 6.47573 8.16753 6.33156 8.86366C6.18739 9.5598 6.26138 10.2814 6.54418 10.9371C6.82697 11.5929 7.30586 12.1533 7.92029 12.5477ZM8.95818 8.07184C9.2654 7.87468 9.62659 7.76944 9.99607 7.76944C10.4915 7.76944 10.9667 7.95849 11.3171 8.29499C11.6674 8.6315 11.8642 9.08789 11.8642 9.56378C11.8642 9.91867 11.7547 10.2656 11.5494 10.5607C11.3441 10.8557 11.0523 11.0857 10.711 11.2215C10.3696 11.3573 9.994 11.3929 9.63161 11.3236C9.26923 11.2544 8.93635 11.0835 8.67509 10.8326C8.41382 10.5816 8.2359 10.2619 8.16381 9.91384C8.09173 9.56577 8.12873 9.20499 8.27012 8.87712C8.41152 8.54924 8.65097 8.26901 8.95818 8.07184Z" fill="#47C473"/>
</svg>
