<svg width="21" height="21" viewBox="0 0 21 21" fill="none" xmlns="http://www.w3.org/2000/svg">
<path d="M6.43547 14.5645C9.61352 17.7424 13.9316 20.9998 16.7924 20.9993C17.2624 21.0097 17.7274 20.9011 18.1442 20.6835C19.315 20.0449 20.2157 18.8197 20.8213 17.0416C21.043 16.3907 21.2281 15.4458 20.2793 14.7571L17.0219 12.3933C16.0396 11.6811 15.1653 12.6539 14.5265 13.3642C13.7928 14.1804 13.5202 14.3692 13.3121 14.2028C11.5854 12.8243 8.17537 9.4145 6.79694 7.68762C6.63102 7.47965 6.81905 7.20729 7.63544 6.47342C8.34585 5.83471 9.31905 4.95998 8.60636 3.97803L6.24242 0.720953C5.55411 -0.228172 4.60872 -0.0429953 3.9578 0.178641C2.1796 0.784427 0.954334 1.68525 0.3157 2.85592C-1.13999 5.52544 2.70266 10.8316 6.43547 14.5645Z" fill="#47C473"/>
</svg>
