<svg width="15" height="15" viewBox="0 0 15 15" fill="none" xmlns="http://www.w3.org/2000/svg">
<path d="M4.59676 10.4032C6.8668 12.6731 9.95115 14.9998 11.9946 14.9995C12.3303 15.007 12.6624 14.9294 12.9601 14.774C13.7964 14.3178 14.4398 13.4426 14.8723 12.1726C15.0307 11.7077 15.1629 11.0327 14.4852 10.5408L12.1585 8.85235C11.4569 8.34362 10.8324 9.03851 10.376 9.54585C9.85201 10.1289 9.65731 10.2637 9.50867 10.1449C8.27532 9.1602 5.83955 6.72464 4.85496 5.49116C4.73644 5.34261 4.87075 5.14807 5.45389 4.62387C5.96132 4.16765 6.65646 3.54284 6.1474 2.84145L4.45887 0.514966C3.96722 -0.16298 3.29194 -0.0307109 2.827 0.127601C1.55686 0.560305 0.681667 1.20375 0.2255 2.03994C-0.81428 3.94674 1.93047 7.73689 4.59676 10.4032Z" fill="white"/>
</svg>
