<svg width="56" height="56" viewBox="0 0 56 56" fill="none" xmlns="http://www.w3.org/2000/svg">
<circle cx="28" cy="28" r="28" fill="#7C509A" fill-opacity="0.1"/>
<circle cx="28" cy="28" r="25" fill="#7C509A"/>
<path d="M35.8174 16.1824C31.053 15.2725 26.1054 15.2725 21.341 16.1824C19.2336 16.6373 16.5766 19.1849 16.1185 21.1866C15.2938 25.099 15.2938 29.1023 16.1185 33.0147C16.6682 35.0164 19.3253 37.564 21.341 38.0189C21.4326 38.0189 21.5242 38.1099 21.5242 38.2009V43.933C21.5242 44.206 21.8907 44.3879 22.074 44.115L24.8226 41.2944C24.8226 41.2944 27.0216 39.0198 27.3881 38.6558C27.3881 38.6558 27.4797 38.5649 27.5713 38.5649C30.32 38.6558 33.1603 38.3829 35.909 37.928C38.0164 37.473 40.6734 34.9254 41.1315 32.9237C41.9562 29.0114 41.9562 25.008 41.1315 21.0956C40.5818 19.1849 37.9247 16.6373 35.8174 16.1824ZM35.909 33.2877C35.4509 34.1975 34.9012 34.9254 33.9849 35.3804C33.7101 35.4713 33.4352 35.5623 33.1603 35.6533C32.7938 35.5623 32.519 35.4713 32.2441 35.3804C29.3122 34.1975 26.5635 32.5598 24.3645 30.1942C23.1734 28.8294 22.1656 27.2826 21.341 25.6449C20.9745 24.826 20.608 24.0981 20.3331 23.2793C20.0582 22.5514 20.5164 21.8235 20.9745 21.2776C21.4326 20.7317 21.9823 20.3677 22.6237 20.0948C23.0818 19.8218 23.5399 20.0038 23.9064 20.3677C24.6394 21.2776 25.3724 22.1874 25.9221 23.1883C26.2886 23.8252 26.197 24.5531 25.5556 25.008C25.3724 25.099 25.2808 25.19 25.0975 25.3719C25.0059 25.4629 24.8226 25.5539 24.731 25.7359C24.5478 26.0088 24.5478 26.2818 24.6394 26.5548C25.3724 28.6474 26.7467 30.2852 28.8541 31.195C29.2205 31.377 29.4954 31.468 29.9535 31.468C30.5949 31.377 30.8698 30.6491 31.3279 30.2852C31.786 29.9212 32.3357 29.9212 32.8855 30.1942C33.3436 30.4671 33.8017 30.8311 34.3514 31.195C34.8096 31.559 35.2677 31.8319 35.7258 32.1959C36.0007 32.3778 36.0923 32.8328 35.909 33.2877ZM32.0609 26.4638C31.8776 26.4638 31.9692 26.4638 32.0609 26.4638C31.6944 26.4638 31.6027 26.2818 31.5111 26.0088C31.5111 25.8269 31.5111 25.5539 31.4195 25.3719C31.3279 25.008 31.1446 24.6441 30.7781 24.3711C30.5949 24.2801 30.4116 24.1891 30.2284 24.0981C29.9535 24.0072 29.7703 24.0072 29.4954 24.0072C29.2206 23.9162 29.1289 23.7342 29.1289 23.4612C29.1289 23.2793 29.4038 23.0973 29.587 23.0973C31.053 23.1883 32.1525 24.0072 32.3357 25.7359C32.3357 25.8269 32.3357 26.0088 32.3357 26.0998C32.3357 26.2818 32.2441 26.4638 32.0609 26.4638ZM31.1446 22.4604C30.6865 22.2784 30.2284 22.0965 29.6787 22.0055C29.4954 22.0055 29.2206 21.9145 29.0373 21.9145C28.7624 21.9145 28.5792 21.7325 28.6708 21.4596C28.6708 21.1866 28.8541 21.0046 29.1289 21.0956C30.0452 21.1866 30.8698 21.3686 31.6944 21.7325C33.3436 22.5514 34.2598 23.9162 34.5347 25.7359C34.5347 25.8269 34.5347 25.9179 34.5347 26.0088C34.5347 26.1908 34.5347 26.3728 34.5347 26.6457C34.5347 26.7367 34.5347 26.8277 34.5347 26.9187C34.4431 27.2826 33.8017 27.3736 33.7101 26.9187C33.7101 26.8277 33.6185 26.6457 33.6185 26.5548C33.6185 25.7359 33.4352 24.917 33.0687 24.1891C32.519 23.3703 31.8776 22.8243 31.1446 22.4604ZM36.0923 27.9195C35.8174 27.9195 35.6342 27.6466 35.6342 27.3736C35.6342 26.8277 35.5425 26.2818 35.4509 25.7359C35.0844 22.8243 32.7022 20.4587 29.8619 20.0038C29.4038 19.9128 28.9457 19.9128 28.5792 19.8218C28.3043 19.8218 27.9378 19.8218 27.8462 19.4579C27.7546 19.1849 28.0294 18.912 28.3043 18.912C28.3959 18.912 28.4876 18.912 28.4876 18.912C32.2441 19.0029 28.6708 18.912 28.4876 18.912C32.3357 19.0029 35.5425 21.5505 36.1839 25.3719C36.2755 26.0088 36.3671 26.6457 36.3671 27.3736C36.5504 27.6466 36.3671 27.9195 36.0923 27.9195Z" fill="white"/>
</svg>
