<svg width="56" height="56" viewBox="0 0 56 56" fill="none" xmlns="http://www.w3.org/2000/svg">
<circle cx="28" cy="28" r="28" fill="#48C95F" fill-opacity="0.1"/>
<circle cx="28" cy="28" r="25" fill="#48C95F"/>
<path d="M37.9085 18.0781C35.439 15.6172 32.1463 14.25 28.6707 14.25C21.4451 14.25 15.5915 20.0833 15.5915 27.2839C15.5915 29.5625 16.2317 31.8411 17.3293 33.7552L15.5 40.5L22.4512 38.6771C24.372 39.6797 26.4756 40.2266 28.6707 40.2266C35.8963 40.2266 41.75 34.3932 41.75 27.1927C41.6585 23.8203 40.378 20.5391 37.9085 18.0781ZM34.9817 31.9323C34.7073 32.6615 33.4268 33.3906 32.7866 33.4818C32.2378 33.5729 31.5061 33.5729 30.7744 33.3906C30.3171 33.2083 29.6768 33.026 28.9451 32.6615C25.6524 31.2943 23.5488 28.013 23.3659 27.7396C23.1829 27.5573 21.9939 26.0078 21.9939 24.3672C21.9939 22.7266 22.8171 21.9974 23.0915 21.6328C23.3659 21.2682 23.7317 21.2682 24.0061 21.2682C24.189 21.2682 24.4634 21.2682 24.6463 21.2682C24.8293 21.2682 25.1037 21.1771 25.378 21.8151C25.6524 22.4531 26.2927 24.0938 26.3841 24.1849C26.4756 24.3672 26.4756 24.5495 26.3841 24.7318C26.2927 24.9141 26.2012 25.0964 26.0183 25.2786C25.8354 25.4609 25.6524 25.7344 25.561 25.8255C25.378 26.0078 25.1951 26.1901 25.378 26.4635C25.561 26.8281 26.2012 27.8307 27.2073 28.7422C28.4878 29.8359 29.4939 30.2005 29.8598 30.3828C30.2256 30.5651 30.4085 30.474 30.5915 30.2917C30.7744 30.1094 31.4146 29.3802 31.5976 29.0156C31.7805 28.651 32.0549 28.7422 32.3293 28.8333C32.6037 28.9245 34.25 29.7448 34.5244 29.9271C34.8902 30.1094 35.0732 30.2005 35.1646 30.2917C35.2561 30.5651 35.2561 31.2031 34.9817 31.9323Z" fill="white"/>
</svg>
